<svg xmlns='http://www.w3.org/2000/svg' width='191' height='221' viewBox='0 0 191 221'><title>logo-ars-us</title><g xmlns="http://www.w3.org/2000/svg" fill="none" fill-rule="evenodd"><path fill="#FFF" d="M.002 198h191V0h-191z"/><path fill="#FF322E" d="M0 198l.003 23H191v-23z"/><path d="M105.975 52.177v96.43h23.109V71.63h9.313c10.806 0 16.957 5.152 16.957 14.463 0 9.145-6.151 14.465-16.957 14.465H136.9v19.452h2.492c24.938 0 39.569-12.553 39.569-33.917 0-21.78-14.631-33.917-39.57-33.917h-33.417zm-61.952 0l-32.148 96.43H35.15l21.836-68.16 10.944 34.075H53.774l-5.654 19.452h26.057l4.699 14.63h23.942L70.673 52.177H44.02h.003z" fill="#000"/></g></svg>