<svg width="622" height="191" viewBox="0 0 622 191" version="1.1" preserveAspectRatio="xMinYMin meet"  xmlns='http://www.w3.org/2000/svg' >
							<title>Channel 4 News</title>
						<g>
						<path class="keyline" d="M612,0 L10,0 L0,0 L0,191 L622,191 L622,0 L612,0 L612,0 Z M10,10 L180,10 L180,180 L10,180 L10,10 L10,10 Z M612,180 L191,180 L191,10 L612,10 L612,180 L612,180 Z"></path>
						<path class="text" d="M312,48 L312,142 L299,142 L250,71 L250,142 L236,142 L236,48 L249,48 L298,118 L298,48 L312,48 L312,48 Z M397,112 L345,112 C346.630154,122.26506 353.31017,130.585601 366,131 C374.152381,130.585601 381.101121,127.81407 386,121 L395,128 C389.65118,137.719618 379.230075,143 366,143 C343.82559,143 331,127.021071 331,108 C331,88.5854032 344.091307,73 364,73 C384.974568,73 397,88.5854032 397,106 C397,108.662154 396.86664,110.245178 397,112 L397,112 Z M382,102 C381.337153,92.5695104 374.574322,85 364,85 C352.95715,85 346.592425,92.0362357 345,102 L382,102 L382,102 L382,102 Z M502,75 L481,142 L467,142 L454,95 L440,142 L427,142 L405,75 L420,75 L434,126 L448,75 L460,75 L474,126 L488,75 L502,75 L502,75 Z M512,129 L520,121 C525.999752,128.28421 534.189652,130.934843 542,131 C548.321243,130.934843 554.13407,128.28421 554,123 C554.13407,119.139326 551.358505,116.752363 544,115 L534,113 C522.43216,109.990462 514.507921,104.420551 515,93 C514.507921,81.0882123 525.075886,73 540,73 C552.017701,73 561.26529,76.8475971 567,84 L559,92 C554.263927,87.7197703 547.922751,84.9318295 540,85 C532.999133,84.9318295 528.375834,87.9834406 528,93 C528.375834,96.864654 530.621068,98.8546189 538,101 L550,103 C561.790664,106.14585 568,111.980427 568,122 C568,135.576436 556.641,143 542,143 C530.886729,143 518.603862,139.02405 512,129 L512,129 Z M64,101 L84,77 L84,61 L51,101 L64,101 L64,101 Z M101,101 L101,42 L91,54 L91,101 L101,101 L101,101 Z M107,49 L116,38 L108,32 L107,33 L107,49 L107,49 Z M100,108 L47,108 L47,117 L100,117 L100,108 L100,108 Z M117,142 L117,47 L107,59 L107,142 L117,142 L117,142 Z M142,108 L124,108 L124,117 L142,117 L142,108 L142,108 Z M101,124 L91,124 L91,159 L101,159 L101,124 L101,124 Z M133,149 L107,149 L107,159 L133,159 L133,149 L133,149 Z M84,149 L75,149 L75,159 L84,159 L84,149 L84,149 Z"></path>
					</g>
						</svg>
