<?xml version="1.0" encoding="utf-8"?>
<!-- Generator: Adobe Illustrator 24.0.1, SVG Export Plug-In . SVG Version: 6.00 Build 0)  -->
<svg version="1.1" id="Layer_1" xmlns="http://www.w3.org/2000/svg" xmlns:xlink="http://www.w3.org/1999/xlink" x="0px" y="0px"
	 viewBox="0 0 1226.78 389.72" style="enable-background:new 0 0 1226.78 389.72;" xml:space="preserve">
<style type="text/css">
	.st0{fill:#ED77AB;}
	.st1{fill:#010101;}
</style>
<g>
	<g>
		<path class="st0" d="M110.56,110.56h66.5c39.27,0,66.08,19.29,66.08,57.86v0.46c0,39.27-27.23,60.19-67.13,60.19h-16.04v44.15
			h-49.4V110.56z M173.26,190.27c12.67,0,21.11-6.27,21.11-17.89v-0.46c0-11.85-7.81-17.89-20.9-17.89h-13.51v36.25H173.26z"/>
		<path class="st0" d="M246.8,162.67h47.92v110.56H246.8V162.67z M294.52,133.44c0,12.64-10.68,22.89-23.86,22.89
			s-23.86-10.25-23.86-22.89c0-12.64,10.68-22.89,23.86-22.89S294.52,120.8,294.52,133.44z"/>
		<path class="st0" d="M299.82,162.67h47.92v15.39c7.39-9.11,19-18.02,35.26-18.02c24.28,0,39.48,15.39,39.48,40.29v72.9h-47.92
			v-58.11c0-9.52-5.91-14.98-13.09-14.98c-7.18,0-13.72,5.47-13.72,14.98v58.11h-47.92V162.67z"/>
		<path class="st0" d="M427.51,125.41h47.92v71.27l24.7-34.02h52.14l-36.1,44.95l36.73,65.61h-51.3l-16.68-30.37l-9.5,11.74v18.63
			h-47.92V125.41z"/>
	</g>
	<path class="st1" d="M564.41,125.83h46.98l53.41,65.14v-65.14h49.76V273.4h-44.62l-55.77-68.09v68.09h-49.76V125.83z"/>
	<path class="st1" d="M719.41,215.17v-0.41c0-33.53,25.1-59.05,60.27-59.05c41.61,0,60.92,27.77,60.92,61.93
		c0,2.47,0,5.35-0.21,7.82H765.1c3.43,9.88,11.58,15.02,22.09,15.02c8.79,0,16.09-3.91,23.81-11.52l26.17,19.96
		c-11.58,14.4-28.1,24.48-53.41,24.48C745.37,273.4,719.41,250.15,719.41,215.17z M799.89,204.89c-1.07-10.7-7.72-16.87-16.3-16.87
		c-8.15,0-13.94,6.58-15.44,16.87H799.89z"/>
	<path class="st1" d="M831.51,158.04h46.55l12.01,46.15l14.16-46.56h38.83l14.37,46.98l12.44-46.56h45.9L979.95,273.4h-40.76
		l-15.66-49.08l-16.09,49.08h-40.54L831.51,158.04z"/>
	<path class="st1" d="M1006.78,257.14l16.52-26.54c14.16,8.44,30.03,12.55,43.33,12.55c4.72,0,7.08-1.03,7.08-3.7v-0.41
		c0-2.26-2.15-3.7-13.94-6.58c-29.6-6.99-47.83-14.61-47.83-37.86v-0.41c0-24.69,20.59-38.47,51.05-38.47
		c19.31,0,38.4,4.73,52.55,12.96l-15.44,27.77c-12.44-6.58-27.46-10.49-37.32-10.49c-4.72,0-6.86,1.23-6.86,3.5v0.41
		c0,2.26,2.57,3.7,14.37,6.58c29.6,7,47.4,14.81,47.4,37.86v0.41c0,24.48-19.09,38.68-50.84,38.68
		C1044.1,273.4,1023.51,267.84,1006.78,257.14z"/>
</g>
</svg>
